<?xml version="1.0" encoding="utf-8"?>
<!-- Generator: Adobe Illustrator 16.0.0, SVG Export Plug-In . SVG Version: 6.00 Build 0)  -->
<!DOCTYPE svg PUBLIC "-//W3C//DTD SVG 1.1//EN" "http://www.w3.org/Graphics/SVG/1.1/DTD/svg11.dtd">
<svg version="1.1" id="Layer_1" xmlns="http://www.w3.org/2000/svg" xmlns:xlink="http://www.w3.org/1999/xlink" x="0px" y="0px"
	 width="446.167px" height="58.823px" viewBox="165.834 733.177 446.167 58.823"
	 enable-background="new 165.834 733.177 446.167 58.823" xml:space="preserve">
<g>
	<path fill="#333333" d="M195.306,736.439c9.434,0,17.282,4.248,17.282,14.545c0,5.977-3.024,10.656-8.137,12.601
		c5.688,1.151,7.128,6.913,7.561,11.952c0.288,3.24,0.433,10.298,2.448,12.17h-11.665c-1.296-2.592-1.296-7.705-1.584-10.514
		c-0.72-7.057-2.88-9.576-10.225-9.576h-10.01v20.09h-11.161v-51.27h25.49V736.439z M180.977,759.48h10.657
		c5.256,0,9.938-0.936,9.938-7.271c0-5.905-4.682-6.913-9.434-6.913h-11.161V759.48z"/>
	<path fill="#333333" d="M237.785,788.787c-11.449,0-19.011-7.777-19.011-19.442c0-11.521,7.85-19.874,18.65-19.874
		c11.233,0,18.361,8.209,18.361,21.242v1.008h-26.643c0.145,6.409,3.24,9.865,8.713,9.865c3.744,0,6.049-1.656,7.562-5.4h9.793
		C252.907,784.251,246.21,788.787,237.785,788.787z M237.425,756.888c-4.537,0-7.705,3.168-8.281,8.353h16.273
		C244.986,760.705,242.537,756.888,237.425,756.888z"/>
	<path fill="#333333" d="M281.848,743.927c-1.585-0.071-2.305-0.144-3.385-0.144c-3.672,0-4.536,0.72-4.536,3.815v2.952h7.272v6.913
		h-7.201v30.243h-10.226v-30.243h-6.048v-6.913h6.048v-1.943c0-8.568,3.456-12.386,12.745-12.386c1.802,0,3.528,0.144,5.329,0.216
		L281.848,743.927L281.848,743.927z"/>
	<path fill="#333333" d="M309.711,759.337c-1.801-0.36-2.809-0.433-3.96-0.433c-7.057,0-9.793,5.041-9.793,11.81v16.993h-10.226
		v-37.154h9.722v6.841c2.305-4.825,6.479-7.704,12.025-7.704c0.791,0,1.225,0.071,2.232,0.215V759.337L309.711,759.337z"/>
	<path fill="#333333" d="M329.799,788.787c-11.449,0-19.01-7.777-19.01-19.442c0-11.521,7.85-19.874,18.648-19.874
		c11.234,0,18.363,8.209,18.363,21.242v1.008h-26.643c0.143,6.409,3.238,9.865,8.713,9.865c3.744,0,6.049-1.656,7.561-5.4h9.793
		C344.92,784.251,338.225,788.787,329.799,788.787z M329.44,756.888c-4.535,0-7.703,3.168-8.279,8.353h16.271
		C337,760.705,334.553,756.888,329.44,756.888z"/>
	<path fill="#333333" d="M375.519,761.354c-0.574-3.889-2.951-5.113-7.057-5.113c-3.6,0-5.76,1.369-5.76,3.672
		c0,3.097,3.168,3.529,9.072,4.752c6.695,1.369,14.473,3.097,14.473,11.521c0,7.777-6.408,12.602-16.992,12.602
		c-9.29,0-17.282-3.672-17.427-13.178h9.722c0.359,4.465,3.24,6.193,7.92,6.193c4.178,0,6.77-1.8,6.77-4.607
		c0-3.168-3.023-3.746-8.354-4.97c-6.625-1.512-15.265-2.521-15.265-11.377c0-7.272,5.904-11.377,16.272-11.377
		c8.496,0,15.842,3.24,16.129,11.882H375.519z"/>
	<path fill="#333333" d="M402.445,755.52c2.951-3.959,6.625-5.904,11.736-5.904c9.072,0,13.033,5.113,13.033,13.754v24.338H416.99
		v-21.891c0-4.537-1.08-7.849-6.553-7.849c-6.768,0-7.992,5.329-7.992,10.802v18.938h-10.082v-51.27h10.082V755.52L402.445,755.52z"
		/>
	<path fill="#333333" d="M460.263,736.439c9,0,16.346,3.815,16.346,12.889c0,4.968-2.809,8.713-6.984,10.584
		c5.328,1.513,9.359,5.4,9.359,12.529c0,10.01-7.703,15.266-17.354,15.266h-25.633v-51.27h24.266V736.439z M446.941,757.176h10.227
		c4.104,0,8.496-0.792,8.496-5.977s-4.178-6.049-8.496-6.049h-10.227V757.176z M446.941,778.779h11.307
		c4.822,0,9.504-0.937,9.504-6.985c0-6.192-5.041-6.984-10.08-6.984h-10.73V778.779z"/>
	<path fill="#333333" d="M509.87,787.707c-0.506-1.368-0.576-1.944-0.723-3.6c-3.168,3.168-7.561,4.68-12.023,4.68
		c-8.207,0-13.248-4.25-13.248-11.233c0-9.722,8.855-10.873,16.201-11.81c6.625-0.863,9.07-1.439,9.07-4.463
		c0-3.385-2.16-4.969-6.693-4.969c-4.684,0-6.625,1.44-7.348,5.688h-9.576c0.576-8.281,6.48-12.529,17.209-12.529
		c7.488,0,16.201,1.728,16.201,12.097v16.058c0,3.384-0.07,6.913,1.297,10.081H509.87z M501.878,771.578
		c-3.529,0.576-7.488,1.008-7.488,5.543c0,3.097,2.088,4.969,5.615,4.969c5.328,0,9.07-2.952,9.07-8.28v-4.177
		C506.7,771.002,504.47,771.146,501.878,771.578z"/>
	<path fill="#333333" d="M551.63,787.707v-21.674c0-4.608-0.865-8.065-6.338-8.065c-6.119,0-8.064,4.394-8.064,9.793v19.946h-10.152
		v-37.155h9.721v5.185c2.953-3.959,7.057-6.191,12.313-6.191c7.852,0,12.893,4.68,12.893,13.32v24.843L551.63,787.707
		L551.63,787.707z"/>
	<path fill="#333333" d="M591.804,764.305l15.625,23.402h-12.385l-10.227-16.489l-4.176,3.888v12.602h-10.01v-51.27h10.01v27.436
		l13.105-13.321h12.025L591.804,764.305z"/>
</g>
</svg>
